Coordinates
version=1
nRows=4
nColumns=124
inDegrees=yes

Units are S.I. units (second, meters, Newtons, ...)
If the header above contains a line with 'inDegrees', this indicates whether rotational values are in degrees (yes) or radians (no).

endheader 
time	pelvis_tilt	pelvis_list	pelvis_rotation	pelvis_tx	pelvis_ty	pelvis_tz	hip_flexion_l	hip_adduction_l	hip_rotation_l	hip_flexion_r	hip_adduction_r	hip_rotation_r	knee_angle_l	knee_angle_r	ankle_angle_l	ankle_angle_r	subtalar_angle_l	subtalar_angle_r	mtp_angle_l	mtp_angle_r	lumbar_extension	lumbar_bending	lumbar_rotation	arm_flex_l	arm_add_l	arm_rot_l	arm_flex_r	arm_add_r	arm_rot_r	elbow_flex_l	elbow_flex_r	glut_med1_l/activation	glut_med2_l/activation	glut_med3_l/activation	glut_min1_l/activation	glut_min2_l/activation	glut_min3_l/activation	semimem_l/activation	semiten_l/activation	bifemlh_l/activation	bifemsh_l/activation	sar_l/activation	add_long_l/activation	add_brev_l/activation	add_mag1_l/activation	add_mag2_l/activation	add_mag3_l/activation	tfl_l/activation	pect_l/activation	grac_l/activation	glut_max1_l/activation	glut_max2_l/activation	glut_max3_l/activation	iliacus_l/activation	psoas_l/activation	quad_fem_l/activation	gem_l/activation	peri_l/activation	rect_fem_l/activation	vas_med_l/activation	vas_int_l/activation	vas_lat_l/activation	med_gas_l/activation	lat_gas_l/activation	soleus_l/activation	tib_post_l/activation	flex_dig_l/activation	flex_hal_l/activation	tib_ant_l/activation	per_brev_l/activation	per_long_l/activation	per_tert_l/activation	ext_dig_l/activation	ext_hal_l/activation	ercspn_l/activation	intobl_l/activation	extobl_l/activation	glut_med1_r/activation	glut_med2_r/activation	glut_med3_r/activation	glut_min1_r/activation	glut_min2_r/activation	glut_min3_r/activation	semimem_r/activation	semiten_r/activation	bifemlh_r/activation	bifemsh_r/activation	sar_r/activation	add_long_r/activation	add_brev_r/activation	add_mag1_r/activation	add_mag2_r/activation	add_mag3_r/activation	tfl_r/activation	pect_r/activation	grac_r/activation	glut_max1_r/activation	glut_max2_r/activation	glut_max3_r/activation	iliacus_r/activation	psoas_r/activation	quad_fem_r/activation	gem_r/activation	peri_r/activation	rect_fem_r/activation	vas_med_r/activation	vas_int_r/activation	vas_lat_r/activation	med_gas_r/activation	lat_gas_r/activation	soleus_r/activation	tib_post_r/activation	flex_dig_r/activation	flex_hal_r/activation	tib_ant_r/activation	per_brev_r/activation	per_long_r/activation	per_tert_r/activation	ext_dig_r/activation	ext_hal_r/activation	ercspn_r/activation	intobl_r/activation	extobl_r/activation	
          0.00000000	         -6.35310580	         -2.68656147	          4.22834723	          0.00000000	          0.99887858	         -0.01196267	         -5.43538960	          1.77367365	         12.99519153	         30.84608072	          5.27273712	          5.44760531	         -4.30118159	        -12.39258668	         10.28738671	          7.70479652	         -8.66612883	         -4.42596769	         18.31679685	          0.19941727	          1.78170580	          0.31297634	         -1.04959430	         -2.74870099	        -13.46363041	         19.34889585	          2.73276481	        -13.46343585	         19.34734249	         28.69991340	         35.51438294	          0.46769982	          0.36668956	          0.30047538	          0.28628048	          0.34660106	          0.33237290	          0.05000523	          0.05000422	          0.05000314	          0.09060869	          0.15506008	          0.05000295	          0.05000310	          0.05000699	          0.05001470	          0.05000562	          0.32622731	          0.05001353	          0.05001106	          0.06492533	          0.05012420	          0.05000599	          0.35334851	          0.37169355	          0.05011656	          0.05171039	          0.26349997	          0.13829013	          0.05001222	          0.05001144	          0.05001046	          0.41300140	          0.45593392	          0.29743564	          0.38740047	          0.21039965	          0.20296240	          0.05325825	          0.05000379	          0.05000353	          0.05001038	          0.05000375	          0.05001642	          0.05000058	          0.05000044	          0.05000111	          0.05001208	          0.05000639	          0.05000487	          0.05002689	          0.05001659	          0.05001319	          0.06390858	          0.05602824	          0.06389845	          0.06389188	          0.05001454	          0.15090431	          0.27058077	          0.16662812	          0.13882250	          0.06931131	          0.05001420	          0.05012410	          0.11289761	          0.05000691	          0.05000553	          0.07314881	          0.14213231	          0.13354395	          0.09463617	          0.05001742	          0.05001135	          0.05000751	          0.05006034	          0.05004849	          0.05002275	          0.05055461	          0.05001336	          0.05489998	          0.05000070	          0.05000565	          0.05000341	          0.43672671	          0.21923146	          0.16630610	          0.13241528	          0.47518443	          0.21883011	          0.06233631	          0.17245016	          0.08244262	
          0.01668656	         -6.40194192	         -2.64767207	          4.26411778	          0.01370153	          0.99667240	         -0.01116710	         -5.92516377	          1.75454831	         12.45096336	         30.49695580	          5.52620808	          5.96473576	         -4.87256909	        -12.40030869	         10.55986031	          7.08434205	         -8.18683130	         -4.87573825	         19.54683682	          0.23629144	          1.97659547	          0.47835485	         -1.62560885	         -2.63661437	        -13.46363080	         19.34821479	          1.83796365	        -13.46362941	         19.34887521	         29.80398034	         33.49237511	          0.45170375	          0.33379629	          0.26590934	          0.22829065	          0.27971182	          0.32883107	          0.05000737	          0.05000602	          0.05000358	          0.08388245	          0.12134759	          0.05000433	          0.05000530	          0.05001047	          0.05002088	          0.05000829	          0.32464647	          0.05001944	          0.05001569	          0.05082240	          0.05001743	          0.05000744	          0.30347291	          0.32801455	          0.05001302	          0.05006452	          0.25399431	          0.15974915	          0.05001095	          0.05001026	          0.05000953	          0.40671667	          0.45675763	          0.31455263	          0.39277221	          0.23107384	          0.22578959	          0.05000262	          0.05003380	          0.05000854	          0.05002174	          0.05000618	          0.05001533	          0.05000044	          0.05000080	          0.05000070	          0.05000096	          0.05000188	          0.05000262	          0.05000477	          0.05000425	          0.05000357	          0.05000396	          0.05000462	          0.05000304	          0.05000627	          0.05003083	          0.13102178	          0.21173633	          0.16877167	          0.14998271	          0.07168461	          0.05000646	          0.05748778	          0.10564657	          0.05000267	          0.05000240	          0.08456822	          0.11120788	          0.10448866	          0.13559220	          0.05008887	          0.05000362	          0.08168505	          0.08661004	          0.09570681	          0.08803159	          0.05000029	          0.05000063	          0.05000009	          0.05000611	          0.05001492	          0.05001806	          0.47653558	          0.24587851	          0.19585984	          0.19593866	          0.46209195	          0.17121727	          0.06202228	          0.14151630	          0.07206502	
          0.03337311	         -6.44611156	         -2.60445372	          4.28333728	          0.02793743	          0.99454058	         -0.01032827	         -6.38008348	          1.74861268	         11.83628525	         29.97042724	          5.76566814	          6.49255875	         -5.56920846	        -12.73378628	         10.75456574	          6.58086307	         -7.69329280	         -5.36615040	         20.84840317	          0.19033935	          2.20353115	          0.65306440	         -2.20336577	         -2.63378035	        -13.46384144	         19.34889076	          0.83514776	        -13.46342377	         19.34563668	         30.96843069	         31.49136324	          0.40598407	          0.28727525	          0.21247461	          0.23215789	          0.25403942	          0.25733451	          0.05001472	          0.05000967	          0.05000480	          0.07714252	          0.09662456	          0.05000334	          0.05000397	          0.05000902	          0.05001901	          0.05000968	          0.27599502	          0.05001381	          0.05001407	          0.05751087	          0.05011021	          0.05000978	          0.25087249	          0.34858366	          0.05001167	          0.05006247	          0.19873611	          0.15236756	          0.05000761	          0.05000702	          0.05000660	          0.39677893	          0.45506950	          0.32809187	          0.40077039	          0.26079433	          0.25747986	          0.05000360	          0.05000230	          0.05000122	          0.05000669	          0.05000226	          0.05001042	          0.05000051	          0.05000043	          0.05000224	          0.05145668	          0.05000765	          0.05000593	          0.05001773	          0.05001474	          0.05001723	          0.05209692	          0.05012119	          0.05003403	          0.05018848	          0.05001736	          0.10251493	          0.16566490	          0.13205037	          0.11735042	          0.05611090	          0.05005048	          0.05007994	          0.08266585	          0.05001154	          0.05001227	          0.06619743	          0.08701035	          0.08175323	          0.10608988	          0.05002931	          0.05001523	          0.06391137	          0.06776571	          0.07488293	          0.06887756	          0.05390703	          0.05754043	          0.05564924	          0.05000455	          0.05000965	          0.05001248	          0.50594973	          0.24983615	          0.17559041	          0.15330510	          0.50198122	          0.13396376	          0.05000084	          0.16726700	          0.05638472	
          0.05005967	         -6.48695134	         -2.56137814	          4.27307816	          0.04250737	          0.99257370	         -0.00942071	         -6.77034280	          1.75169090	         11.18083340	         29.32493478	          5.99076242	          7.00861298	         -6.42064586	        -12.99891358	         10.85458506	          6.09442039	         -7.19683286	         -5.92072553	         22.19203385	          0.19164143	          2.44060913	          0.84365048	         -2.77886548	         -2.72546362	        -13.46354804	         19.34423628	         -0.23516896	        -13.46425982	         19.34274493	         32.21451203	         29.51869320	          0.40302532	          0.24137423	          0.17010874	          0.22381247	          0.24248222	          0.20706277	          0.05000648	          0.05000431	          0.05000307	          0.06036804	          0.11407839	          0.05000318	          0.05000390	          0.05000850	          0.05001791	          0.05000740	          0.24423176	          0.05001491	          0.05001244	          0.06136050	          0.05016749	          0.05000993	          0.25613653	          0.31309121	          0.06200316	          0.05679351	          0.15549582	          0.19499915	          0.05001503	          0.05001433	          0.05001305	          0.37511555	          0.43656961	          0.33141874	          0.39636599	          0.26115316	          0.26254137	          0.05000536	          0.05000181	          0.05000102	          0.05000535	          0.05000204	          0.05001078	          0.05479446	          0.05000031	          0.05000103	          0.13538418	          0.13237421	          0.11619225	          0.06906032	          0.05962645	          0.05216744	          0.05000612	          0.05009858	          0.05001507	          0.05002443	          0.05001547	          0.08021066	          0.12961804	          0.10331948	          0.09182018	          0.06592415	          0.05001076	          0.05004128	          0.06468386	          0.10931025	          0.09523399	          0.07811904	          0.06807797	          0.06396478	          0.08300716	          0.05003872	          0.05089826	          0.05000750	          0.05338883	          0.08272195	          0.07858748	          0.05000069	          0.05000139	          0.05000031	          0.05000108	          0.05000501	          0.05000464	          0.56338421	          0.29476108	          0.18638292	          0.33208361	          0.52457560	          0.21282474	          0.05764482	          0.16146958	          0.05000076	
